<?xml version="1.0" encoding="iso-8859-1"?>
<!-- Uploaded to: SVG Repo, www.svgrepo.com, Generator: SVG Repo Mixer Tools -->
<!DOCTYPE svg PUBLIC "-//W3C//DTD SVG 1.1//EN" "http://www.w3.org/Graphics/SVG/1.1/DTD/svg11.dtd">
<svg fill="#000000" version="1.1" id="Capa_1" xmlns="http://www.w3.org/2000/svg" xmlns:xlink="http://www.w3.org/1999/xlink" 
	 width="800px" height="800px" viewBox="0 0 29.725 29.725"
	 xml:space="preserve">
<g>
	<path d="M26.309,29.723l1.12-0.64l-3.651-6.385c1.22-0.476,1.623-1.65,1.623-2.052c0-0.028,0-0.064,0-0.099c0-0.541,0-1.56,0-1.56
		v-4.706c0,0,0-0.023,0-0.058c0-0.819,0-10.952,0-11.754c0-0.836-0.773-2.47-2.771-2.47S9.222,0.001,7.093,0.001
		c-2.127,0-2.77,1.332-2.77,2.47c0,1.092,0,10.947,0,11.754c0,0.035,0,0.058,0,0.058v4.705c0,0,0,1.106,0,1.561
		c0,0.034,0,0.073,0,0.1c0,0.291,0.478,1.506,1.641,2.021l-3.669,6.415l1.119,0.641l0.393-0.687h22.11L26.309,29.723z M6.14,17.378
		c0-0.892,0.881-1.61,1.971-1.61c1.088,0,1.97,0.719,1.97,1.61c0,0.89-0.882,1.61-1.97,1.61C7.021,18.988,6.14,18.268,6.14,17.378z
		 M22.411,22.904l0.38,0.666H6.935l0.382-0.666C9.733,22.904,19.899,22.904,22.411,22.904z M21.125,18.781
		c-1.089,0-1.971-0.721-1.971-1.611s0.882-1.609,1.971-1.609s1.97,0.721,1.97,1.609C23.095,18.061,22.214,18.781,21.125,18.781z
		 M23.453,24.729l0.55,0.961H5.722l0.55-0.961H23.453z M5.612,2.471c0-0.816,0.457-1.181,1.48-1.181h15.537
		c1.348,0,1.479,1.169,1.479,1.181v10.523H5.612V2.471z M4.469,27.88l0.592-1.034h19.604l0.591,1.034H4.469z"/>
</g>
</svg>